<svg width="86" height="20" viewBox="0 0 86 20" fill="none" xmlns="http://www.w3.org/2000/svg">
<path d="M2 8.75C1.30964 8.75 0.75 9.30964 0.75 10C0.75 10.6904 1.30964 11.25 2 11.25V8.75ZM84.8839 10.8839C85.372 10.3957 85.372 9.60427 84.8839 9.11612L76.9289 1.16117C76.4408 0.67301 75.6493 0.67301 75.1612 1.16117C74.673 1.64932 74.673 2.44078 75.1612 2.92893L82.2322 10L75.1612 17.0711C74.673 17.5592 74.673 18.3507 75.1612 18.8388C75.6493 19.327 76.4408 19.327 76.9289 18.8388L84.8839 10.8839ZM2 11.25H84V8.75H2V11.25Z" fill="#13274B"/>
</svg>
