<svg width="102" height="30" viewBox="0 0 102 30" fill="none" xmlns="http://www.w3.org/2000/svg">
<path d="M2.5 13.2009C1.39543 13.2009 0.5 14.0964 0.5 15.2009C0.5 16.3055 1.39543 17.2009 2.5 17.2009V13.2009ZM100.914 16.6151C101.695 15.8341 101.695 14.5678 100.914 13.7867L88.1863 1.05879C87.4052 0.277743 86.1389 0.277743 85.3579 1.05879C84.5768 1.83984 84.5768 3.10617 85.3579 3.88722L96.6716 15.2009L85.3579 26.5146C84.5768 27.2957 84.5768 28.562 85.3579 29.3431C86.1389 30.1241 87.4052 30.1241 88.1863 29.3431L100.914 16.6151ZM2.5 17.2009H99.5V13.2009H2.5V17.2009Z" fill="#13274B"/>
</svg>
