<svg width="19" height="19" viewBox="0 0 19 19" fill="none" xmlns="http://www.w3.org/2000/svg">
<path d="M1.08572 15.7976C0.465902 16.4175 0.465902 17.4224 1.08572 18.0422C1.70554 18.662 2.71047 18.662 3.33029 18.0422L1.08572 15.7976ZM18.4994 2.21566C18.4994 1.3391 17.7888 0.628508 16.9123 0.628508L2.62792 0.628507C1.75136 0.628507 1.04077 1.3391 1.04077 2.21566C1.04077 3.09222 1.75136 3.80281 2.62792 3.80281L15.3251 3.80281L15.3251 16.5C15.3251 17.3766 16.0357 18.0872 16.9123 18.0872C17.7888 18.0872 18.4994 17.3766 18.4994 16.5L18.4994 2.21566ZM3.33029 18.0422L18.0346 3.33794L15.79 1.09337L1.08572 15.7976L3.33029 18.0422Z" fill="white"/>
</svg>
