<svg width="102" height="30" viewBox="0 0 102 30" fill="none" xmlns="http://www.w3.org/2000/svg">
<path opacity="0.5" d="M99.5 13.2009C100.605 13.2009 101.5 14.0964 101.5 15.2009C101.5 16.3055 100.605 17.2009 99.5 17.2009V13.2009ZM1.08578 16.6151C0.304741 15.8341 0.304741 14.5678 1.08578 13.7867L13.8137 1.05879C14.5948 0.277743 15.8611 0.277743 16.6421 1.05879C17.4232 1.83984 17.4232 3.10617 16.6421 3.88722L5.32843 15.2009L16.6421 26.5146C17.4232 27.2957 17.4232 28.562 16.6421 29.3431C15.8611 30.1241 14.5948 30.1241 13.8137 29.3431L1.08578 16.6151ZM99.5 17.2009H2.5V13.2009H99.5V17.2009Z" fill="#13274B"/>
</svg>
