<svg width="26" height="32" viewBox="0 0 26 32" fill="none" xmlns="http://www.w3.org/2000/svg">
<path d="M20.9759 30.6887V22.7489M5.12109 30.6887V22.7489" stroke="#92C3DD" stroke-width="2.38194" stroke-linecap="round"/>
<path d="M18.5987 16.397H7.50035C4.88431 16.397 3.5763 16.397 2.76295 17.3276C2.3095 17.8452 2.10973 18.5408 2.02094 19.5745C1.89886 21.0037 1.83703 21.7199 2.30791 22.2344C2.7788 22.7489 3.56044 22.7489 5.12214 22.7489H20.9769C22.5386 22.7489 23.3187 22.7489 23.7895 22.2344C24.262 21.7199 24.2002 21.0053 24.0765 19.5745C23.9893 18.5424 23.788 17.8468 23.3345 17.3276C22.5227 16.397 21.2147 16.397 18.5987 16.397ZM5.12214 10.0452C5.12214 7.07571 5.12214 5.59256 5.7595 4.48734C6.17695 3.7632 6.77734 3.16187 7.50035 2.74377C8.60384 2.10541 10.0847 2.10541 13.0495 2.10541C16.0144 2.10541 17.4952 2.10541 18.5987 2.74377C19.3217 3.16187 19.9221 3.7632 20.3395 4.48734C20.9769 5.59256 20.9769 7.07571 20.9769 10.0452V16.397H5.12214V10.0452Z" stroke="#92C3DD" stroke-width="2.38194"/>
</svg>
