<svg width="27" height="20" viewBox="0 0 27 20" fill="none" xmlns="http://www.w3.org/2000/svg">
<path fill-rule="evenodd" clip-rule="evenodd" d="M9.33924 7.22113C9.97096 7.22113 10.5768 6.97017 11.0235 6.52347C11.4702 6.07677 11.7212 5.47092 11.7212 4.83919C11.7212 4.20746 11.4702 3.60161 11.0235 3.15491C10.5768 2.70821 9.97096 2.45725 9.33924 2.45725C8.70751 2.45725 8.10165 2.70821 7.65495 3.15491C7.20825 3.60161 6.9573 4.20746 6.9573 4.83919C6.9573 5.47092 7.20825 6.07677 7.65495 6.52347C8.10165 6.97017 8.70751 7.22113 9.33924 7.22113ZM9.33924 9.60306C10.6027 9.60306 11.8144 9.10116 12.7078 8.20776C13.6012 7.31436 14.1031 6.10265 14.1031 4.83919C14.1031 3.57573 13.6012 2.36402 12.7078 1.47062C11.8144 0.577224 10.6027 0.0753174 9.33924 0.0753174C8.07578 0.0753174 6.86407 0.577224 5.97067 1.47062C5.07727 2.36402 4.57536 3.57573 4.57536 4.83919C4.57536 6.10265 5.07727 7.31436 5.97067 8.20776C6.86407 9.10116 8.07578 9.60306 9.33924 9.60306ZM4.52931 14.1859C3.29547 15.0434 2.98741 15.8739 2.98741 16.2598C2.98741 16.968 3.56225 17.5428 4.27047 17.5428H14.408C14.748 17.542 15.0739 17.4066 15.3143 17.1661C15.5548 16.9257 15.6902 16.5998 15.6911 16.2598C15.6911 15.8723 15.383 15.0418 14.1492 14.1859C12.9788 13.3745 11.275 12.779 9.33924 12.779C7.40351 12.779 5.69964 13.3745 4.52931 14.1859ZM0.605469 16.2598C0.605469 13.3284 4.53566 10.397 9.33924 10.397C11.213 10.397 12.9566 10.8433 14.3842 11.5626C15.7512 10.7898 17.2966 10.388 18.867 10.397C22.7972 10.397 26.0128 12.8393 26.0128 15.2832C26.0128 16.0931 25.6911 16.8698 25.1184 17.4424C24.5457 18.0151 23.769 18.3368 22.9591 18.3368H17.4283C16.7677 19.296 15.6609 19.9248 14.408 19.9248H4.27047C3.29871 19.9239 2.36699 19.5375 1.67985 18.8504C0.992713 18.1633 0.60631 17.2315 0.605469 16.2598ZM18.0587 15.9549H22.9591C23.3307 15.9549 23.6309 15.6532 23.6309 15.2832C23.6309 15.1196 23.4784 14.5337 22.5383 13.8699C21.6586 13.2458 20.3549 12.779 18.867 12.779C18.046 12.779 17.2806 12.9219 16.6121 13.1537C17.4473 14.0017 17.9682 14.9735 18.0587 15.9549ZM20.4549 5.63317C20.4549 6.05432 20.2876 6.45822 19.9898 6.75602C19.692 7.05382 19.2881 7.22113 18.867 7.22113C18.4458 7.22113 18.0419 7.05382 17.7441 6.75602C17.4463 6.45822 17.279 6.05432 17.279 5.63317C17.279 5.21202 17.4463 4.80811 17.7441 4.51031C18.0419 4.21251 18.4458 4.04521 18.867 4.04521C19.2881 4.04521 19.692 4.21251 19.9898 4.51031C20.2876 4.80811 20.4549 5.21202 20.4549 5.63317ZM22.8369 5.63317C22.8369 6.68605 22.4186 7.69581 21.6741 8.44031C20.9296 9.18481 19.9199 9.60306 18.867 9.60306C17.8141 9.60306 16.8043 9.18481 16.0598 8.44031C15.3153 7.69581 14.8971 6.68605 14.8971 5.63317C14.8971 4.58029 15.3153 3.57053 16.0598 2.82603C16.8043 2.08153 17.8141 1.66327 18.867 1.66327C19.9199 1.66327 20.9296 2.08153 21.6741 2.82603C22.4186 3.57053 22.8369 4.58029 22.8369 5.63317Z" fill="#92C3DD"/>
</svg>
