<svg width="24" height="22" viewBox="0 0 24 22" fill="none" xmlns="http://www.w3.org/2000/svg">
<path d="M20.4 0H3.6C1.90295 0 1.05442 -3.6425e-08 0.527208 0.503799C1.43051e-07 1.0076 0 1.81844 0 3.44014V4.28325C0 5.55172 -1.07288e-07 6.18595 0.31152 6.71173C0.62304 7.2375 1.19216 7.56381 2.33042 8.21644L5.82605 10.2207C6.58975 10.6585 6.9716 10.8775 7.24501 11.1193C7.81439 11.6227 8.1649 12.2143 8.32373 12.9399C8.4 13.2882 8.4 13.696 8.4 14.5113V17.774C8.4 18.8857 8.4 19.4415 8.7023 19.8749C9.00462 20.3082 9.54154 20.5219 10.6154 20.9496C12.8698 21.8472 13.9969 22.296 14.7985 21.7853C15.6 21.2747 15.6 20.1078 15.6 17.774V14.5113C15.6 13.696 15.6 13.2882 15.6763 12.9399C15.8351 12.2143 16.1856 11.6227 16.755 11.1193C17.0284 10.8775 17.4102 10.6585 18.174 10.2207L21.6696 8.21644C22.8078 7.56381 23.377 7.2375 23.6885 6.71173C24 6.18595 24 5.55172 24 4.28325V3.44014C24 1.81844 24 1.0076 23.4728 0.503799C22.9456 -3.6425e-08 22.097 0 20.4 0Z" fill="#13274B"/>
</svg>
