<svg width="29" height="27" viewBox="0 0 29 27" fill="none" xmlns="http://www.w3.org/2000/svg">
<path d="M14.7896 9.95641C21.8056 9.95641 27.4933 8.06054 27.4933 5.72186C27.4933 3.38318 21.8056 1.4873 14.7896 1.4873C7.77356 1.4873 2.08594 3.38318 2.08594 5.72186C2.08594 8.06054 7.77356 9.95641 14.7896 9.95641Z" stroke="#92C3DD" stroke-width="2.38194" stroke-linecap="round" stroke-linejoin="round"/>
<path d="M14.7886 21.2486C16.4782 21.2486 17.422 22.3185 17.8616 23.2473C17.9637 23.4683 17.9904 23.7228 17.937 23.964C17.8835 24.2053 17.7534 24.4169 17.5707 24.56C16.7471 25.1695 15.7781 25.491 14.7886 25.4831C13.7367 25.4831 12.7687 25.1373 12.0065 24.5586C11.8237 24.4155 11.6936 24.2038 11.6402 23.9626C11.5867 23.7214 11.6135 23.4669 11.7156 23.2459C12.1551 22.3213 13.099 21.2486 14.7886 21.2486ZM14.7886 21.2486V9.95642" stroke="#92C3DD" stroke-width="2.38194" stroke-linecap="round" stroke-linejoin="round"/>
</svg>
